<svg width="1920" height="832" viewBox="0 0 1920 832" fill="none" xmlns="http://www.w3.org/2000/svg">
<path d="M0 27C0 27 228.325 110.057 503.513 110.057C778.7 110.057 953.525 0.00103214 1332.31 1.04438e-08C1711.1 -0.00103212 1920 76.5 1920 76.5V779C1920 779 1734.84 686.778 1359.83 714.293C984.821 741.807 847.767 811.402 517.002 828.666C186.237 845.93 0 784 0 784V27Z" fill="url(#paint0_linear_588_1847)"/>
<path d="M0 30C0 30 282 132 537 132C792 132 954 30.001 1305 30C1656 29.999 1920 108.5 1920 108.5V782C1920 782 1678 666.5 1330.5 692C983 717.5 856 782 549.5 798C243 814 0 736 0 736V30Z" fill="url(#paint1_linear_588_1847)"/>
<defs>
<linearGradient id="paint0_linear_588_1847" x1="1985.75" y1="107.359" x2="-46.2612" y2="761.959" gradientUnits="userSpaceOnUse">
<stop stop-color="#028CB5"/>
<stop offset="1" stop-color="#028CB5"/>
</linearGradient>
<linearGradient id="paint1_linear_588_1847" x1="1910.5" y1="129.5" x2="27.5001" y2="736" gradientUnits="userSpaceOnUse">
<stop stop-color="#028CB5"/>
<stop offset="1" stop-color="#81C6DA"/>
</linearGradient>
</defs>
</svg>
