<svg width="35" height="34" viewBox="0 0 35 34" fill="none" xmlns="http://www.w3.org/2000/svg">
<path d="M21.3921 13.1069C20.4891 12.2044 20.4891 10.7343 21.3921 9.83132C22.2946 8.92829 23.7647 8.92879 24.6672 9.83181C25.5703 10.7343 25.5703 12.2044 24.6677 13.1069C23.7647 14.01 22.2946 14.01 21.3921 13.1069ZM23.9072 10.5923C23.4233 10.1079 22.6366 10.1079 22.1526 10.5913C21.6682 11.0758 21.6682 11.8625 22.1526 12.3464C22.6366 12.8308 23.4233 12.8308 23.9077 12.3464C24.3916 11.863 24.3916 11.0753 23.9072 10.5923Z" fill="#028CB5"/>
<path d="M23.1838 23.6888C24.3302 21.3691 24.5024 18.7264 24.5286 17.9357C25.4495 17.0974 26.541 16.0816 27.8627 14.8322C32.5841 10.369 34.2833 4.30963 34.1428 2.05727C34.1071 1.48477 33.9409 1.06468 33.6727 0.827667C33.4357 0.559481 33.0151 0.393225 32.4431 0.357599C30.1907 0.217074 24.1303 1.91526 19.6677 6.6377C18.4188 7.95884 17.4029 9.05088 16.5647 9.97172C15.7735 9.99745 13.1298 10.1687 10.8116 11.3161C8.12081 12.6481 4.71851 16.8124 4.57502 16.9896L4.26576 17.3701L6.32763 19.432L6.76355 19.8679L7.14159 19.4562C7.99909 18.521 10.2614 16.3978 12.007 15.902C12.0031 15.9119 11.6602 16.4384 11.6607 16.618C11.6607 16.6655 11.6612 16.7476 11.6547 16.7936L10.2119 18.237C9.74774 18.7016 9.84967 19.5571 10.4296 20.1633C7.90656 21.1841 0.261282 24.951 0.885729 32.9575L0.932241 33.5671L1.54283 33.6146C9.54932 34.2391 13.3163 26.5938 14.3371 24.0703C14.9432 24.6512 15.7983 24.7526 16.2629 24.2875L17.7062 22.8446C17.7523 22.8377 17.8349 22.8387 17.8824 22.8387C18.061 22.8397 18.5885 22.4968 18.5979 22.4918C18.1026 24.238 15.9794 26.5008 15.0442 27.3578L14.632 27.7358L15.0679 28.1717L17.1293 30.2331L17.5098 29.9249C17.6879 29.7819 21.8517 26.3791 23.1838 23.6888ZM32.9102 1.59017C33.4763 2.15623 32.6079 6.77279 29.597 11.0232C28.9493 10.6006 27.641 9.67038 26.2283 8.27156C24.83 6.85938 23.8997 5.5511 23.4767 4.90291C27.7271 1.89249 32.3441 1.02411 32.9102 1.59017ZM12.87 14.6744C10.6339 14.4542 7.73387 17.1504 6.65964 18.2419L5.7962 17.379C6.69478 16.326 9.34002 13.3562 11.3915 12.3414C13.1575 11.467 15.1926 11.2082 16.2287 11.1315C15.8141 13.0237 13.4593 14.3656 12.87 14.6744ZM11.0506 19.0757L12.5276 17.5992C12.5607 17.5655 12.5899 17.5304 12.6152 17.4948L13.581 18.4602C13.2564 18.7422 12.9887 19.0158 12.8101 19.2711C12.6112 19.5542 12.3321 19.8817 12.009 20.2261L11.2168 19.4344C11.0555 19.2731 11.0337 19.1093 11.0506 19.0757ZM2.02032 32.479C1.84714 25.5112 8.91547 22.0495 11.0501 21.1816C9.88975 22.2756 8.57406 23.3395 8.02977 23.6858L7.4642 24.0455L10.4548 27.0357L10.8145 26.4701C11.1609 25.9258 12.2243 24.6096 13.3183 23.4498C12.4509 25.5839 8.98821 32.6522 2.02032 32.479ZM13.6909 19.8887C14.3371 18.9688 16.0843 17.8214 17.4959 17.0044C16.679 18.4161 15.5316 20.1633 14.6112 20.8085C13.2525 21.7605 11.2277 24.101 10.2905 25.3499L9.15001 24.2093C10.3984 23.2722 12.7389 21.2474 13.6909 19.8887ZM16.9007 21.9713L15.4237 23.4488C15.391 23.4661 15.2277 23.4439 15.0659 23.2825L14.2742 22.4909C14.6186 22.1682 14.9452 21.8887 15.2292 21.6898C15.484 21.5101 15.7582 21.2434 16.0402 20.9184L17.0056 21.8842C16.9695 21.9095 16.9338 21.9382 16.9007 21.9713ZM18.7938 21.0619C18.536 21.2172 18.2985 21.3439 18.0818 21.4389L16.7102 20.0678C18.2787 17.902 19.87 14.6313 19.87 14.6313C19.87 14.6313 16.5993 16.2221 14.4326 17.7912L13.061 16.4196C13.157 16.2023 13.2822 15.9653 13.4385 15.707C14.1397 15.3488 17.3069 13.5729 17.4103 10.8075C18.2485 9.88513 19.2688 8.78913 20.5261 7.4576C21.1936 6.75101 21.8948 6.12112 22.6088 5.55605C23.0917 6.29035 24.0447 7.61544 25.4594 9.04198C26.8854 10.4556 28.211 11.4096 28.9453 11.8931C28.3802 12.6061 27.7503 13.3077 27.0438 13.9757C25.7132 15.233 24.6172 16.2528 23.6934 17.0905C20.9289 17.1929 19.1521 20.3612 18.7938 21.0619ZM17.1214 28.7032L16.2579 27.8402C17.349 26.7665 20.0457 23.8654 19.8255 21.6299C20.1348 21.0416 21.4762 18.6863 23.3693 18.2716C23.2921 19.3078 23.0323 21.3419 22.159 23.1084C21.1432 25.1603 18.1733 27.8046 17.1214 28.7032Z" fill="#028CB5"/>
</svg>
