<svg width="51" height="51" viewBox="0 0 51 51" fill="none" xmlns="http://www.w3.org/2000/svg">
<path d="M0 10C0 4.47715 4.47715 0 10 0H40.042C45.5648 0 50.042 4.47715 50.042 10V40.042C50.042 45.5648 45.5648 50.042 40.042 50.042H10C4.47715 50.042 0 45.5648 0 40.042V10Z" fill="#028CB5"/>
<path d="M27.6061 6.69821C28.9867 7.79739 29.5087 9.88286 28.5637 11.4893C28.2934 11.949 27.8258 12.4296 27.6165 12.7772C27.1384 13.5723 27.2308 14.4248 27.7036 15.2102C28.0603 15.8005 28.3962 16.2796 28.4826 17.0094C28.7164 18.9908 27.1228 20.6489 25.3445 20.5424C23.9654 20.4594 22.9392 19.4715 22.5982 18.0158C22.3517 16.9659 22.7523 16.0417 23.3212 15.1981C23.56 14.8444 23.6844 14.4398 23.6943 13.9844C23.7196 12.8078 22.9564 12.4264 22.4783 11.5675C22.0717 10.8361 21.8274 9.78367 22.0479 8.92803C22.1916 8.36997 22.4053 7.79659 22.7464 7.36514C23.9304 5.86596 26.148 5.53854 27.6061 6.69821Z" fill="white"/>
<path d="M9.44846 29.1985C7.51976 28.5614 6.50254 26.2235 7.242 24.1953C8.01125 22.084 10.2639 21.1485 12.1122 22.3703C12.308 22.4993 12.5001 22.7243 12.6811 22.8518C13.3103 23.2929 14.2866 23.0493 14.2903 22.1098C14.3008 19.2171 14.2926 16.3252 14.3015 13.4325C14.303 12.9889 14.5517 12.7962 14.9315 12.7962C16.7683 12.7978 18.6052 12.7978 20.4421 12.7962C21.3133 12.7954 21.8972 13.6752 21.4288 14.5567C21.2783 14.8389 21.1294 15.1228 20.982 15.4083C19.7957 17.701 20.7623 20.4082 22.6098 21.8566C24.33 23.2058 26.9736 23.1477 28.5947 21.7235C29.3826 21.0308 30.0714 19.9381 30.3693 18.7961C30.6188 17.8397 30.6031 16.8849 30.2814 15.955C30.128 15.5099 29.8413 15.0341 29.603 14.5897C29.2463 13.926 29.4757 13.0889 30.163 12.8543C30.2841 12.8129 30.4832 12.7924 30.7602 12.793C32.4919 12.7962 34.2235 12.7965 35.9551 12.7938C36.3349 12.7938 36.6804 12.872 36.6908 13.3397C36.7556 16.1954 36.7273 19.0655 36.7295 21.9227C36.73 22.2276 36.7645 22.4534 36.833 22.6001C37.0967 23.163 37.7952 23.1808 38.2516 22.8413C38.8749 22.3768 39.385 21.9445 40.1751 21.8639C41.7144 21.7082 42.9863 22.4469 43.6446 23.959C44.3513 25.5832 43.9767 27.363 42.6914 28.5033C41.905 29.2009 40.8632 29.521 39.8773 29.2251C39.3754 29.0743 38.9859 28.7759 38.5741 28.4219C38.3537 28.2326 38.1941 28.1138 38.0953 28.0654C37.6693 27.859 36.9939 27.9654 36.7854 28.4848C36.7377 28.6041 36.7139 28.7931 36.7139 29.0517C36.7129 31.7044 36.7164 34.3568 36.7243 37.0089C36.7251 37.2976 36.7712 37.6694 36.6298 37.9048C36.4982 38.1253 36.284 38.2347 35.9871 38.2331C34.2495 38.2239 32.512 38.2183 30.7744 38.2161C29.953 38.2153 29.2605 37.5411 29.5345 36.6008C29.612 36.3339 29.7989 36.0807 29.9478 35.8299C31.0559 33.9597 30.4631 31.5815 29.087 30.1081C27.512 28.4211 25.3576 28.0332 23.3441 29.0227C21.6127 29.8727 20.2417 32.1057 20.5203 34.225C20.6156 34.9524 20.8881 35.5791 21.2642 36.1855C21.4191 36.435 21.5127 36.6282 21.5449 36.7653C21.6797 37.3323 21.4094 38.1992 20.737 38.1968C19.2039 38.1903 17.3249 38.1968 15.0998 38.2161C14.717 38.2199 14.4693 38.071 14.3566 37.7694C14.3099 37.6452 14.2866 37.3766 14.2866 36.9637C14.2876 34.318 14.2938 31.6718 14.3052 29.0251C14.3072 28.6079 14.1665 28.3082 13.883 28.1259C12.9581 27.5291 12.2469 28.759 11.4941 29.1025C10.8408 29.4009 10.1589 29.4329 9.44846 29.1985Z" fill="white"/>
<path d="M23.817 31.2914C25.6861 29.9543 28.2031 31.1245 28.4853 33.5632C28.5399 34.0363 28.467 34.5067 28.2664 34.9745C27.8352 35.9793 26.9022 36.6019 27.4696 37.9244C27.6305 38.2994 27.9931 38.6922 28.2582 39.047C29.0213 40.0696 29.2193 41.1655 28.8525 42.3349C28.4004 43.776 27.0489 44.9018 25.6355 44.9163C23.8341 44.9357 22.2182 43.6034 22.0067 41.6276C21.889 40.5325 22.347 39.4284 23.0492 38.6551C23.2701 38.4115 23.4171 38.2153 23.4901 38.0664C23.9265 37.176 23.6234 36.3777 23.0738 35.5906C22.1147 34.2172 22.5168 32.2213 23.817 31.2914Z" fill="white"/>
</svg>
