<svg width="1920" height="140" viewBox="0 0 1920 140" fill="none" xmlns="http://www.w3.org/2000/svg">
<path d="M0 27C0 27 228.325 110.057 503.513 110.057C778.7 110.057 953.525 0.00103214 1332.31 1.04438e-08C1711.1 -0.00103212 1920 76.5 1920 76.5V140H1356.5H616.5H0V27Z" fill="url(#paint0_linear_659_1847)"/>
<path d="M0 27C0 27 282 129 537 129C792 129 954 27.001 1305 27C1656 26.999 1920 105.5 1920 105.5V140H1334.5H489.5H0V27Z" fill="url(#paint1_linear_659_1847)"/>
<defs>
<linearGradient id="paint0_linear_659_1847" x1="1985.75" y1="107.359" x2="-46.2609" y2="761.959" gradientUnits="userSpaceOnUse">
<stop stop-color="#028CB5"/>
<stop offset="1" stop-color="#028CB5"/>
</linearGradient>
<linearGradient id="paint1_linear_659_1847" x1="1920" y1="140" x2="1.71496e-05" y2="140" gradientUnits="userSpaceOnUse">
<stop stop-color="#028CB5"/>
<stop offset="1" stop-color="#81C6DA"/>
</linearGradient>
</defs>
</svg>
